HIERARCHY
ROOT Hips
{
	OFFSET 0.00000 0.00000 0.00000
	CHANNELS 6 Xposition Yposition Zposition Zrotation Yrotation Xrotation 
	JOINT LHipJoint
	{
		OFFSET 0 0 0
		CHANNELS 3 Zrotation Yrotation Xrotation
		JOINT LeftUpLeg
		{
			OFFSET 2.36090 -1.39315 1.24752
			CHANNELS 3 Zrotation Yrotation Xrotation
			JOINT LeftLeg
			{
				OFFSET 2.06810 -5.68207 0.00000
				CHANNELS 3 Zrotation Yrotation Xrotation
				JOINT LeftFoot
				{
					OFFSET 2.46631 -6.77613 0.00000
					CHANNELS 3 Zrotation Yrotation Xrotation
					JOINT LeftToeBase
					{
						OFFSET 0.26031 -0.71520 1.99545
						CHANNELS 3 Zrotation Yrotation Xrotation
						End Site
						{
							OFFSET 0.00000 -0.00000 1.05957
						}
					}
				}
			}
		}
	}
	JOINT RHipJoint
	{
		OFFSET 0 0 0
		CHANNELS 3 Zrotation Yrotation Xrotation
		JOINT RightUpLeg
		{
			OFFSET -2.25243 -1.39315 1.24752
			CHANNELS 3 Zrotation Yrotation Xrotation
			JOINT RightLeg
			{
				OFFSET -2.17343 -5.97145 0.00000
				CHANNELS 3 Zrotation Yrotation Xrotation
				JOINT RightFoot
				{
					OFFSET -2.52372 -6.93386 0.00000
					CHANNELS 3 Zrotation Yrotation Xrotation
					JOINT RightToeBase
					{
						OFFSET -0.22538 -0.61923 2.11447
						CHANNELS 3 Zrotation Yrotation Xrotation
						End Site
						{
							OFFSET -0.00000 -0.00000 1.10506
						}
					}
				}
			}
		}
	}
	JOINT LowerBack
	{
		OFFSET 0 0 0
		CHANNELS 3 Zrotation Yrotation Xrotation
		JOINT Spine
		{
			OFFSET 0.01594 2.13103 0.08007
			CHANNELS 3 Zrotation Yrotation Xrotation
			JOINT Spine1
			{
				OFFSET 0.01393 2.09723 0.18338
				CHANNELS 3 Zrotation Yrotation Xrotation
				JOINT Neck
				{
					OFFSET 0 0 0
					CHANNELS 3 Zrotation Yrotation Xrotation
					JOINT Neck1
					{
						OFFSET 0.05351 1.38915 0.32494
						CHANNELS 3 Zrotation Yrotation Xrotation
						JOINT Head
						{
							OFFSET 0.00711 1.45992 -0.21666
							CHANNELS 3 Zrotation Yrotation Xrotation
							End Site
							{
								OFFSET -0.00433 1.47702 -0.11056
							}
						}
					}
				}
				JOINT LeftShoulder
				{
					OFFSET 0 0 0
					CHANNELS 3 Zrotation Yrotation Xrotation
					JOINT LeftArm
					{
						OFFSET 2.87198 0.92249 0.11132
						CHANNELS 3 Zrotation Yrotation Xrotation
						JOINT LeftForeArm
						{
							OFFSET 5.52731 -0.00000 0.00000
							CHANNELS 3 Zrotation Yrotation Xrotation
							JOINT LeftHand
							{
								OFFSET 3.11059 -0.00000 0.00000
								CHANNELS 3 Zrotation Yrotation Xrotation
								JOINT LeftFingerBase
								{
									OFFSET 0 0 0
									CHANNELS 3 Zrotation Yrotation Xrotation
									JOINT LeftHandIndex1
									{
										OFFSET 0.41963 -0.00000 0.00000
										CHANNELS 3 Zrotation Yrotation Xrotation
										End Site
										{
											OFFSET 0.33831 -0.00000 0.00000
										}
									}
								}
								JOINT LThumb
								{
									OFFSET 0 0 0
									CHANNELS 3 Zrotation Yrotation Xrotation
									End Site
									{
										OFFSET 0.34348 -0.00000 0.34348
									}
								}
							}
						}
					}
				}
				JOINT RightShoulder
				{
					OFFSET 0 0 0
					CHANNELS 3 Zrotation Yrotation Xrotation
					JOINT RightArm
					{
						OFFSET -2.94710 0.68072 0.32187
						CHANNELS 3 Zrotation Yrotation Xrotation
						JOINT RightForeArm
						{
							OFFSET -5.25396 -0.00000 -0.00000
							CHANNELS 3 Zrotation Yrotation Xrotation
							JOINT RightHand
							{
								OFFSET -3.10567 -0.00000 0.00000
								CHANNELS 3 Zrotation Yrotation Xrotation
								JOINT RightFingerBase
								{
									OFFSET 0 0 0
									CHANNELS 3 Zrotation Yrotation Xrotation
									JOINT RightHandIndex1
									{
										OFFSET -0.49868 -0.00000 0.00000
										CHANNELS 3 Zrotation Yrotation Xrotation
										End Site
										{
											OFFSET -0.40204 -0.00000 0.00000
										}
									}
								}
								JOINT RThumb
								{
									OFFSET 0 0 0
									CHANNELS 3 Zrotation Yrotation Xrotation
									End Site
									{
										OFFSET -0.40818 -0.00000 0.40818
									}
								}
							}
						}
					}
				}
			}
		}
	}
}
MOTION
Frames: 10
Frame Time: .0083333
2.8264 15.7264 31.8318 -163.7560 -86.8643 180.5650 0.0000 0.0000 0.0000 0.0000 0.0000 0.0000 0.0000 0.0000 0.0000 0.0000 0.0000 0.0000 0.0000 0.0000 0.0000 0.0000 0.0000 0.0000 21.9918 25.7034 -18.6056 -1.9340 -8.7272 24.9458 -0.4360 -7.4854 -17.4039 -0.1287 -2.3127 6.3706 -2.5853 -2.5314 -23.5893 4.0610 -3.5937 -7.1171 4.8738 -2.0022 5.7013 -2.4989 -7.2037 -15.4056 9.0800 -12.3443 21.9088 1.8621 -5.1050 10.3092 0.0000 -0.0000 0.0000 -83.7860 12.8837 50.8642 18.9847 -29.3996 -5.0233 -0.0000 0.0000 -49.3153 28.7543 10.2859 5.5959 -7.1250 0.0000 -0.0000 1.5406 41.6700 -0.1266 0.0000 -0.0000 0.0000 80.5027 -8.2814 20.5076 -14.4594 23.3877 -3.0081 0.0000 -0.0000 -18.6834 -9.5220 -24.2934 3.9476 7.1250 -0.0000 -0.0000 20.5919 -53.3732 -4.3869
2.8283 15.7264 31.8320 -163.3600 -86.9084 180.1780 0.0000 0.0000 0.0000 0.0000 0.0000 0.0000 0.0000 0.0000 0.0000 0.0000 0.0000 0.0000 0.0000 0.0000 0.0000 0.0000 0.0000 0.0000 22.0010 25.6768 -18.6193 -1.9319 -8.7228 24.9321 -0.4348 -7.5029 -17.4054 -0.1282 -2.3077 6.3568 -2.6274 -2.5345 -23.5841 4.0584 -3.5864 -7.1035 4.8974 -1.9983 5.7147 -2.2745 -7.0071 -15.6126 8.9404 -12.0987 22.0506 1.8071 -4.9751 10.3591 -0.0000 0.0000 0.0000 -83.4739 12.8506 52.3363 19.0066 -29.4268 -5.0341 -0.0000 0.0000 -48.2137 28.5170 10.0236 5.4024 -7.1250 0.0000 -0.0000 1.3444 41.3498 -0.1211 -0.0000 0.0000 0.0000 80.3076 -8.3639 21.6046 -14.4925 23.4343 -3.0212 0.0000 -0.0000 -17.2657 -9.9445 -23.6776 4.0275 7.1250 -0.0000 -0.0000 19.8503 -52.8697 -3.9689
2.8301 15.7265 31.8323 -162.8880 -86.9479 179.7160 0.0000 0.0000 0.0000 0.0000 0.0000 0.0000 0.0000 0.0000 0.0000 0.0000 0.0000 0.0000 0.0000 0.0000 0.0000 0.0000 0.0000 0.0000 22.0141 25.6556 -18.6300 -1.9289 -8.7165 24.9123 -0.4332 -7.5216 -17.4039 -0.1281 -2.3068 6.3543 -2.6600 -2.5319 -23.5834 4.0526 -3.5734 -7.0894 4.9135 -1.9918 5.7297 -2.0587 -6.8068 -15.8249 8.8032 -11.8482 22.2003 1.7549 -4.8430 10.4144 -0.0000 -0.0000 0.0000 -83.1693 12.7974 53.7629 19.0142 -29.4363 -5.0378 -0.0000 0.0000 -47.1335 28.1612 9.7537 5.1820 -7.1250 0.0000 -0.0000 1.0442 41.0105 -0.1028 -0.0000 -0.0000 0.0000 80.1193 -8.4321 22.7328 -14.5104 23.4597 -3.0283 0.0000 -0.0000 -16.0092 -10.7236 -23.1507 4.2581 7.1250 -0.0000 -0.0000 18.8257 -52.5068 -3.5811
2.8318 15.7266 31.8325 -162.3450 -86.9804 179.1850 0.0000 0.0000 0.0000 0.0000 0.0000 0.0000 0.0000 0.0000 0.0000 0.0000 0.0000 0.0000 0.0000 0.0000 0.0000 0.0000 0.0000 0.0000 22.0312 25.6465 -18.6348 -1.9251 -8.7083 24.8870 -0.4312 -7.5441 -17.4004 -0.1285 -2.3108 6.3653 -2.6822 -2.5207 -23.5884 4.0410 -3.5514 -7.0737 4.9197 -1.9808 5.7473 -1.8510 -6.6056 -16.0409 8.6691 -11.5961 22.3529 1.7052 -4.7104 10.4733 -0.0000 0.0000 0.0000 -82.8711 12.7241 55.1364 19.0077 -29.4283 -5.0347 -0.0000 0.0000 -46.0772 27.6836 9.4813 4.9394 -7.1250 0.0000 -0.0000 0.6380 40.6593 -0.0683 -0.0000 0.0000 0.0000 79.9524 -8.4845 23.8371 -14.5095 23.4584 -3.0280 0.0000 -0.0000 -14.8645 -11.7568 -22.7255 4.5968 7.1250 -0.0000 -0.0000 17.6179 -52.2785 -3.2387
2.8333 15.7267 31.8325 -161.7250 -87.0058 178.5750 0.0000 0.0000 0.0000 0.0000 0.0000 0.0000 0.0000 0.0000 0.0000 0.0000 0.0000 0.0000 0.0000 0.0000 0.0000 0.0000 0.0000 0.0000 22.0551 25.6514 -18.6291 -1.9205 -8.6985 24.8566 -0.4285 -7.5750 -17.3965 -0.1292 -2.3173 6.3833 -2.6978 -2.5065 -23.5968 4.0256 -3.5264 -7.0562 4.9186 -1.9685 5.7679 -1.6412 -6.3999 -16.2556 8.5335 -11.3387 22.5064 1.6557 -4.5754 10.5328 0.0000 -0.0000 0.0000 -82.5814 12.6380 56.4359 18.9896 -29.4057 -5.0257 -0.0000 0.0000 -45.0486 27.1048 9.2011 4.6788 -7.1250 0.0000 -0.0000 0.1460 40.2929 -0.0169 0.0000 -0.0000 0.0000 79.8134 -8.5177 24.8977 -14.4858 23.4249 -3.0186 0.0000 -0.0000 -13.7913 -12.9776 -22.3902 5.0168 7.1250 -0.0000 -0.0000 16.2775 -52.1639 -2.9345
2.8347 15.7269 31.8324 -161.0790 -87.0249 177.9380 0.0000 0.0000 0.0000 0.0000 0.0000 0.0000 0.0000 0.0000 0.0000 0.0000 0.0000 0.0000 0.0000 0.0000 0.0000 0.0000 0.0000 0.0000 22.0819 25.6659 -18.6153 -1.9153 -8.6875 24.8225 -0.4254 -7.6089 -17.3913 -0.1303 -2.3267 6.4094 -2.7067 -2.4892 -23.6077 4.0059 -3.4985 -7.0364 4.9095 -1.9547 5.7913 -1.4326 -6.1910 -16.4720 8.3940 -11.0769 22.6656 1.6057 -4.4389 10.5955 0.0000 0.0000 0.0000 -82.3072 12.5400 57.6539 18.9610 -29.3702 -5.0117 -0.0000 0.0000 -44.0511 26.4528 8.9207 4.4119 -7.1250 0.0000 -0.0000 -0.4066 39.9235 0.0509 0.0000 0.0000 0.0000 79.7052 -8.5321 25.8932 -14.4371 23.3562 -2.9992 0.0000 -0.0000 -12.7491 -14.3216 -22.1416 5.4961 7.1250 -0.0000 -0.0000 14.8584 -52.1516 -2.6643
2.8359 15.7271 31.8323 -160.3980 -87.0369 177.2640 0.0000 0.0000 0.0000 0.0000 0.0000 0.0000 0.0000 0.0000 0.0000 0.0000 0.0000 0.0000 0.0000 0.0000 0.0000 0.0000 0.0000 0.0000 22.1135 25.6874 -18.5941 -1.9098 -8.6757 24.7859 -0.4217 -7.6476 -17.3835 -0.1309 -2.3319 6.4238 -2.7098 -2.4705 -23.6212 3.9829 -3.4697 -7.0141 4.8938 -1.9404 5.8182 -1.2205 -5.9775 -16.6848 8.2477 -10.8083 22.8257 1.5541 -4.3000 10.6579 -0.0000 0.0000 0.0000 -82.0520 12.4342 58.7705 18.9238 -29.3239 -4.9935 -0.0000 0.0000 -43.0953 25.7650 8.6572 4.1553 -7.1250 0.0000 -0.0000 -0.9876 39.5738 0.1321 -0.0000 0.0000 0.0000 79.6229 -8.5306 26.8365 -14.3648 23.2538 -2.9706 0.0000 -0.0000 -11.7464 -15.7444 -21.9505 6.0159 7.1250 -0.0000 -0.0000 13.3849 -52.2080 -2.4104
2.8370 15.7271 31.8322 -159.7220 -87.0424 176.5910 0.0000 0.0000 0.0000 0.0000 0.0000 0.0000 0.0000 0.0000 0.0000 0.0000 0.0000 0.0000 0.0000 0.0000 0.0000 0.0000 0.0000 0.0000 22.1480 25.7155 -18.5665 -1.9043 -8.6638 24.7492 -0.4178 -7.6880 -17.3741 -0.1314 -2.3368 6.4374 -2.7089 -2.4512 -23.6367 3.9563 -3.4406 -6.9893 4.8717 -1.9261 5.8485 -1.0025 -5.7599 -16.8925 8.0926 -10.5339 22.9870 1.4995 -4.1594 10.7199 -0.0000 0.0000 0.0000 -81.8182 12.3243 59.7865 18.8806 -29.2700 -4.9723 -0.0000 0.0000 -42.1994 25.0814 8.4125 3.9171 -7.1250 0.0000 -0.0000 -1.5626 39.2490 0.2215 -0.0000 0.0000 0.0000 79.5623 -8.5167 27.7409 -14.2724 23.1229 -2.9343 0.0000 -0.0000 -10.8198 -17.1868 -21.7921 6.5503 7.1250 -0.0000 -0.0000 11.9005 -52.3007 -2.1637
2.8380 15.7271 31.8323 -159.0630 -87.0446 175.9330 0.0000 0.0000 0.0000 0.0000 0.0000 0.0000 0.0000 0.0000 0.0000 0.0000 0.0000 0.0000 0.0000 0.0000 0.0000 0.0000 0.0000 0.0000 22.1820 25.7453 -18.5364 -1.8991 -8.6526 24.7144 -0.4141 -7.7262 -17.3662 -0.1325 -2.3464 6.4639 -2.7018 -2.4305 -23.6515 3.9250 -3.4106 -6.9629 4.8412 -1.9112 5.8796 -0.7840 -5.5375 -17.0863 7.9339 -10.2508 23.1388 1.4455 -4.0161 10.7763 0.0000 0.0000 0.0000 -81.6076 12.2087 60.6749 18.8151 -29.1883 -4.9404 -0.0000 0.0000 -41.3219 24.3335 8.1123 3.6514 -7.1250 0.0000 -0.0000 -2.1843 38.8622 0.3305 0.0000 0.0000 0.0000 79.5328 -8.4880 28.5518 -14.1583 22.9605 -2.8896 0.0000 -0.0000 -9.9643 -18.5921 -21.6230 7.0661 7.1250 -0.0000 -0.0000 10.4429 -52.3769 -1.9132
2.8391 15.7271 31.8326 -158.4730 -87.0465 175.3430 0.0000 0.0000 0.0000 0.0000 0.0000 0.0000 0.0000 0.0000 0.0000 0.0000 0.0000 0.0000 0.0000 0.0000 0.0000 0.0000 0.0000 0.0000 22.2112 25.7759 -18.5074 -1.8945 -8.6428 24.6841 -0.4108 -7.7637 -17.3609 -0.1340 -2.3596 6.5005 -2.6916 -2.4093 -23.6652 3.8884 -3.3802 -6.9350 4.8032 -1.8960 5.9112 -0.5708 -5.3128 -17.2629 7.7752 -9.9611 23.2757 1.3939 -3.8715 10.8251 -0.0000 0.0000 0.0000 -81.4182 12.0900 61.4643 18.7487 -29.1053 -4.9080 -0.0000 0.0000 -40.5906 23.6952 7.8549 3.4324 -7.1250 0.0000 -0.0000 -2.7111 38.5344 0.4321 -0.0000 0.0000 0.0000 79.5310 -8.4459 29.2647 -14.0271 22.7734 -2.8386 0.0000 -0.0000 -9.2267 -19.9091 -21.4219 7.5352 7.1250 -0.0000 -0.0000 9.0565 -52.4053 -1.6618
